HIERARCHY
ROOT Hips
{
	OFFSET 0.000000 0.000000 0.000000
	CHANNELS 6 Xposition Yposition Zposition Zrotation Yrotation Xrotation 
	JOINT LHipJoint
	{
		OFFSET 0.000000 0.000000 0.000000
		CHANNELS 3 Zrotation Yrotation Xrotation
		JOINT LeftUpLeg
		{
			OFFSET 8.178360 -10.767780 5.035740
			CHANNELS 3 Zrotation Yrotation Xrotation
			JOINT LeftLeg
			{
				OFFSET 14.688660 -40.356780 0.000000
				CHANNELS 3 Zrotation Yrotation Xrotation
				JOINT LeftFoot
				{
					OFFSET 15.373200 -42.237540 0.000000
					CHANNELS 3 Zrotation Yrotation Xrotation
					JOINT LeftToeBase
					{
						OFFSET 0.945840 -2.598660 13.935300
						CHANNELS 3 Zrotation Yrotation Xrotation
						End Site
						{
							OFFSET 0.000000 0.000000 0.000000
						}
					}
				}
			}
		}
	}
	JOINT RHipJoint
	{
		OFFSET 0.000000 0.000000 0.000000
		CHANNELS 3 Zrotation Yrotation Xrotation
		JOINT RightUpLeg
		{
			OFFSET -7.833120 -10.767780 5.035740
			CHANNELS 3 Zrotation Yrotation Xrotation
			JOINT RightLeg
			{
				OFFSET -15.255180 -41.913300 0.000000
				CHANNELS 3 Zrotation Yrotation Xrotation
				JOINT RightFoot
				{
					OFFSET -15.409560 -42.337380 0.000000
					CHANNELS 3 Zrotation Yrotation Xrotation
					JOINT RightToeBase
					{
						OFFSET -0.988380 -2.715540 14.178900
						CHANNELS 3 Zrotation Yrotation Xrotation
						End Site
						{
							OFFSET 0.000000 0.000000 0.000000
						}
					}
				}
			}
		}
	}
	JOINT LowerBack
	{
		OFFSET 0.000000 0.000000 0.000000
		CHANNELS 3 Zrotation Yrotation Xrotation
		JOINT Spine
		{
			OFFSET 0.169620 12.213540 -1.160280
			CHANNELS 3 Zrotation Yrotation Xrotation
			JOINT Spine1
			{
				OFFSET 0.340320 12.293100 -0.256500
				CHANNELS 3 Zrotation Yrotation Xrotation
				JOINT Neck
				{
					OFFSET 0.000000 0.000000 0.000000
					CHANNELS 3 Zrotation Yrotation Xrotation
					JOINT Neck1
					{
						OFFSET -0.325020 10.477440 1.032120
						CHANNELS 3 Zrotation Yrotation Xrotation
						JOINT Head
						{
							OFFSET 0.624420 10.568160 -0.743820
							CHANNELS 3 Zrotation Yrotation Xrotation
							End Site
							{
								OFFSET 0.000000 0.000000 0.000000
							}
						}
					}
				}
				JOINT LeftShoulder
				{
					OFFSET 0.000000 0.000000 0.000000
					CHANNELS 3 Zrotation Yrotation Xrotation
					JOINT LeftArm
					{
						OFFSET 20.174460 7.205340 -1.867260
						CHANNELS 3 Zrotation Yrotation Xrotation
						JOINT LeftForeArm
						{
							OFFSET 29.898000 -0.000000 -0.000000
							CHANNELS 3 Zrotation Yrotation Xrotation
							JOINT LeftHand
							{
								OFFSET 20.901360 -0.000000 -0.000000
								CHANNELS 3 Zrotation Yrotation Xrotation
								JOINT LeftFingerBase
								{
									OFFSET 0.000000 0.000000 0.000000
									CHANNELS 3 Zrotation Yrotation Xrotation
									JOINT LeftHandIndex1
									{
										OFFSET 4.291560 -0.000000 -0.000000
										CHANNELS 3 Zrotation Yrotation Xrotation
										End Site
										{
											OFFSET 0.000000 0.000000 0.000000
										}
									}
								}
								JOINT LThumb
								{
									OFFSET 0.000000 0.000000 0.000000
									CHANNELS 3 Zrotation Yrotation Xrotation
									End Site
									{
										OFFSET 0.000000 0.000000 0.000000
									}
								}
							}
						}
					}
				}
				JOINT RightShoulder
				{
					OFFSET 0.000000 0.000000 0.000000
					CHANNELS 3 Zrotation Yrotation Xrotation
					JOINT RightArm
					{
						OFFSET -18.819600 8.244300 -2.427900
						CHANNELS 3 Zrotation Yrotation Xrotation
						JOINT RightForeArm
						{
							OFFSET -31.451400 -0.000000 -0.000000
							CHANNELS 3 Zrotation Yrotation Xrotation
							JOINT RightHand
							{
								OFFSET -20.665020 -0.000000 -0.000000
								CHANNELS 3 Zrotation Yrotation Xrotation
								JOINT RightFingerBase
								{
									OFFSET 0.000000 0.000000 0.000000
									CHANNELS 3 Zrotation Yrotation Xrotation
									JOINT RightHandIndex1
									{
										OFFSET -3.735180 -0.000000 -0.000000
										CHANNELS 3 Zrotation Yrotation Xrotation
										End Site
										{
											OFFSET 0.000000 0.000000 0.000000
										}
									}
								}
								JOINT RThumb
								{
									OFFSET 0.000000 0.000000 0.000000
									CHANNELS 3 Zrotation Yrotation Xrotation
									End Site
									{
										OFFSET 0.000000 0.000000 0.000000
									}
								}
							}
						}
					}
				}
			}
		}
	}
}
MOTION
Frames:	8
Frame Time:	0.0333333
50.641716 106.199442 39.089220 -8.390897 61.186957 -8.588874 -2.633305 1.315820 2.132472 -13.020591 -7.952523 -10.443624 1.752802 10.232115 31.080672 1.156250 -6.534139 -6.867511 0.034200 1.193900 3.282400 0.592449 -0.983572 0.730780 22.517438 -0.704713 -21.662480 -3.377282 -11.479621 34.918838 -1.725051 5.822304 -10.453684 -0.963800 6.250800 -17.513700 -4.826471 -0.730915 10.999938 1.995193 -1.384340 2.131768 4.340840 -0.712860 -4.501632 -13.103515 -10.711284 -2.339255 9.621398 -15.174070 30.217026 5.219100 -6.963600 17.274400 -5.956226 -0.528098 -1.391385 -77.863944 6.634705 23.003473 17.847472 -25.746817 -4.907518 -1.292623 -2.260155 5.362388 21.698865 23.737803 10.468500 -7.125000 0.000000 0.000000 -7.953400 57.771900 -2.497000 4.908975 1.551392 -0.825918 83.898791 -5.778699 5.940551 -28.518558 37.977119 -10.431725 0.568041 -0.012728 -0.534985 -23.553900 8.833367 -3.925400 7.125000 0.000000 0.000000 1.999700 -20.339500 1.180700 
49.666554 106.462284 39.594504 -7.736492 58.603364 -8.001971 -2.581987 1.378058 2.210953 -12.570408 -7.182245 -10.213486 1.539936 9.961028 30.166489 0.903463 -4.432858 -6.869097 0.007400 0.555300 1.526000 0.601389 -1.016124 0.699529 23.144278 -3.850570 -22.830304 -3.405337 -11.700521 35.541428 -0.136792 -2.716081 -11.646903 -0.131500 2.337800 -6.440300 -4.765596 -0.452336 11.335228 1.889640 -1.011095 2.199700 4.040345 -0.537983 -4.632779 -13.124281 -10.633640 -2.516464 9.490206 -15.048218 30.122729 5.175500 -6.949200 17.234700 -6.108931 -0.637503 -1.312657 -77.892097 4.327819 17.740135 16.526921 -23.901655 -4.140541 -1.512286 -2.201514 7.185338 22.705737 24.008215 11.145500 -7.125000 0.000000 0.000000 -6.804500 58.289300 -2.218700 4.992747 1.616790 -0.844222 84.950758 -6.307674 5.499083 -26.700206 36.229159 -9.270054 0.537899 -0.040000 0.980786 -22.395619 8.929896 -3.757200 7.125000 0.000000 0.000000 2.856700 -20.304500 1.690000 
48.804816 106.728726 40.024770 -6.597853 55.554138 -6.755483 -2.550360 1.423918 2.266016 -12.540547 -6.633537 -9.933176 1.325339 9.689428 29.273382 0.497682 -1.549329 -6.992536 0.004700 0.444000 1.219900 0.610696 -1.048838 0.685567 22.497347 -4.941948 -23.305511 -3.536353 -11.934796 36.224507 0.652981 -6.136485 -11.021800 -0.004000 0.409500 -1.125300 -4.505804 -0.097384 11.184634 1.583521 -0.525120 2.100231 3.315000 -0.286541 -4.792639 -12.795459 -10.381233 -2.487581 9.185995 -14.728448 30.255449 5.047400 -6.826200 17.187000 -6.117238 -0.679185 -1.294628 -77.107856 4.028003 15.786121 16.616988 -24.057420 -4.179110 -1.504642 -2.209437 5.387499 23.368425 23.521144 11.311100 -7.125000 0.000000 0.000000 -5.773500 57.908000 -1.827900 4.997029 1.607637 -0.878325 85.991929 -7.047226 5.561066 -25.003657 34.485208 -8.226406 0.527216 -0.040562 2.009352 -21.901897 8.141129 -3.342800 7.125000 0.000000 0.000000 3.201600 -21.195000 1.830300 
48.057690 107.028174 40.511454 -5.630050 52.565939 -5.853989 -2.522213 1.494980 2.358505 -12.529884 -5.745968 -9.377216 1.047145 9.273061 27.945062 0.087323 0.944871 -6.720901 0.001000 -0.202400 -0.556200 0.604626 -1.084288 0.667873 20.957904 -5.323186 -23.112931 -3.770049 -12.254985 37.238316 0.878077 -6.930217 -10.036654 -0.051400 -1.463400 4.024900 -4.182219 0.215727 10.895622 1.561083 -0.049982 2.230923 3.064456 -0.071843 -4.485777 -13.061867 -10.163459 -3.245435 8.827811 -14.268410 30.485419 4.990400 -6.709100 17.451600 -6.126877 -0.709338 -1.291039 -77.296263 3.671581 14.281187 17.003730 -24.558198 -4.362882 -1.455068 -2.275045 3.768827 23.532421 23.697545 11.480500 -7.125000 0.000000 0.000000 -5.663300 58.156700 -1.826800 5.023997 1.578966 -0.882474 86.046621 -6.986101 5.187181 -23.306686 32.668151 -7.220349 0.515491 -0.076955 3.900186 -21.504706 8.254434 -3.329900 7.125000 0.000000 0.000000 3.497900 -21.076200 2.009700 
47.230158 107.163198 41.144556 -4.526749 49.909271 -4.826096 -2.506990 1.548681 2.424074 -12.608845 -5.107236 -8.964399 0.846986 8.965321 26.967558 -0.290705 3.168692 -6.749983 0.012100 -0.711000 -1.953900 0.585861 -1.144692 0.662184 19.147751 -6.092050 -22.800368 -4.019033 -12.596304 38.294813 1.537780 -9.774244 -9.647262 -0.276400 -3.381500 9.342800 -4.538671 0.396359 10.430888 1.691771 0.161519 2.357314 3.528765 0.015095 -4.084041 -13.297016 -9.933907 -3.598120 8.608643 -13.814110 30.147377 4.950500 -6.590000 17.234200 -6.089111 -0.703456 -1.308088 -77.763224 3.989997 14.019727 17.686607 -25.457047 -4.725824 -1.342850 -2.262703 2.179272 23.205750 22.698555 10.879100 -7.125000 0.000000 0.000000 -5.645400 56.986600 -1.661700 5.055886 1.522747 -0.875726 85.709731 -6.821313 4.491551 -22.120221 31.334734 -6.532490 0.528771 -0.124346 5.072720 -22.049885 8.974457 -3.733000 7.125000 0.000000 0.000000 3.108200 -20.227600 1.844500 
46.364814 107.336628 41.828670 -3.843967 47.505279 -4.144915 -2.489129 1.631927 2.516602 -12.433899 -4.667743 -8.437414 0.625857 8.602202 25.821542 -0.661532 5.232048 -6.787157 0.007900 -0.572300 -1.572600 0.571446 -1.218158 0.663676 17.313643 -6.577425 -22.225505 -4.199010 -12.836087 38.958214 2.524112 -13.954180 -9.330317 -0.694100 -5.325700 14.840000 -4.307209 0.446487 10.352258 1.681165 0.238082 2.165297 3.400557 0.069772 -4.419840 -13.322835 -9.807827 -3.161979 8.587666 -13.685906 29.868686 4.963800 -6.576000 16.934700 -6.068113 -0.678669 -1.331568 -77.897781 4.662858 13.877262 17.920117 -25.776875 -4.855278 -1.334268 -2.225125 2.348256 23.270449 22.227852 10.704400 -7.125000 0.000000 0.000000 -5.396700 56.474000 -1.521300 5.060151 1.504281 -0.885804 85.799369 -7.198639 3.075743 -21.337948 30.418193 -6.097229 0.514371 -0.116234 5.972182 -21.477382 8.146104 -3.291700 7.125000 0.000000 0.000000 3.513300 -21.170300 2.011100 
45.430458 107.457246 42.643002 -3.362267 45.340414 -3.613173 -2.451059 1.722768 2.599606 -12.075248 -4.154027 -8.038274 0.446432 8.286037 24.812854 -1.021235 7.088423 -6.548290 0.028500 -1.090500 -2.998000 0.566779 -1.296133 0.668120 15.566645 -7.114700 -21.173150 -4.273377 -12.914222 39.060516 3.458642 -17.766652 -8.703762 -1.306800 -7.241700 20.433300 -3.866774 0.359074 10.146373 1.610220 0.181332 2.124511 3.044484 0.037115 -4.371862 -13.252817 -9.859355 -3.249470 8.764688 -13.864229 29.775548 5.000600 -6.630200 16.958500 -6.073640 -0.659620 -1.343411 -77.835816 4.754136 14.491995 17.991587 -25.874851 -4.894216 -1.347557 -2.321064 1.839860 23.667339 23.406876 11.420800 -7.125000 0.000000 0.000000 -5.427200 57.884000 -1.714700 5.065085 1.513409 -0.873179 85.883984 -6.833104 2.061695 -20.677459 29.623350 -5.731677 0.533321 -0.108199 4.963245 -21.771168 7.913752 -3.248600 7.125000 0.000000 0.000000 3.284000 -21.401100 1.862300 
44.385090 107.467446 43.579158 -3.143440 43.261753 -3.418354 -2.401651 1.821943 2.682024 -11.432864 -3.838079 -7.565778 0.341354 8.096296 24.193215 -1.336939 8.717753 -6.721152 0.052600 -1.479600 -4.069500 0.562801 -1.390746 0.686756 14.095585 -7.316275 -19.467658 -4.176146 -12.777536 38.419004 4.386945 -21.446240 -8.443197 -1.740200 -8.302500 23.636700 -3.563709 0.326561 9.860131 1.816038 0.187318 2.170647 3.265025 0.027196 -4.171976 -13.488025 -9.893676 -3.323236 8.647099 -13.885349 29.784259 4.973100 -6.694200 16.991600 -6.072762 -0.630795 -1.356410 -78.143107 5.277431 14.870848 17.959582 -25.839151 -4.886579 -1.259753 -2.307820 2.333340 22.322113 23.161546 10.600100 -7.125000 0.000000 0.000000 -6.914900 57.312000 -2.092000 5.088709 1.476728 -0.863371 85.700200 -6.566821 0.416067 -20.413300 29.312771 -5.581397 0.544751 -0.121910 5.405516 -22.216848 8.020045 -3.369900 7.125000 0.000000 0.000000 2.953500 -21.249100 1.684500 
